<svg height="16" preserveAspectRatio="xMidYMid meet" viewBox="0 0 16 16" width="16" xmlns="http://www.w3.org/2000/svg" xmlns:xlink="http://www.w3.org/1999/xlink"><defs><path id="a" d="m14.93 1.06.2.08.19.1.16.13.15.15.13.16.1.19.08.2.04.21.02.22v11l-.02.22-.04.21-.08.2-.1.19-.13.16-.15.15-.16.13-.19.1-.2.08-.21.04-.22.02h-13l-.22-.02-.21-.04-.2-.08-.19-.1-.16-.13-.15-.15-.13-.16-.1-.19-.08-.2-.04-.21-.02-.22v-11l.02-.22.04-.21.08-.2.1-.19.13-.16.15-.15.16-.13.19-.1.2-.08.21-.04.22-.02h13l.22.02zm-13.68 12.44v.04l.02.05.01.04.03.03.03.03.03.03.04.01.05.02h.04 13 .03l.03-.01.03-.02.03-.02.03-.03.02-.03.03-.04.02-.05.03-.05v-9.25h-13.5zm10.02-11.23-.12.19-.05.23.05.23.12.19.19.12.23.05.23-.05.19-.12.13-.19.05-.23-.05-.23-.13-.19-.19-.13-.23-.05-.23.05zm2.21 0-.13.19-.05.23.05.23.13.19.18.12.24.05.23-.05.19-.12.12-.19.05-.23-.05-.23-.12-.19-.19-.13-.23-.05-.24.05zm-4.41 0-.13.19-.04.23.04.23.13.19.19.12.23.05.23-.05.19-.12.13-.19.04-.23-.04-.23-.13-.19-.19-.13-.23-.05-.23.05z"/><path id="b" d="m3.55 10.21c.03 0 .05-.02.06-.05.03-.09.17-.55.43-1.38h.01c.25.83.39 1.29.42 1.38.01.03.03.05.06.05h.5c.04 0 .06-.02.07-.05.07-.23.7-2.04.78-2.27.01-.03-.01-.05-.04-.05-.06 0-.56 0-.62 0-.04 0-.06.02-.07.05-.02.09-.15.56-.38 1.41h-.01c-.26-.85-.4-1.32-.43-1.41-.01-.03-.03-.05-.07-.05s-.38 0-.42 0-.07.02-.07.05c-.03.09-.17.56-.43 1.41h-.01c-.24-.85-.37-1.32-.4-1.41-.01-.03-.03-.05-.07-.05-.06 0-.56 0-.62 0-.03 0-.05.02-.04.05.08.23.71 2.04.79 2.27.01.03.03.05.06.05z"/><path id="c" d="m7.5 10.21c.03 0 .05-.02.06-.05.03-.09.18-.55.43-1.38h.01c.26.83.4 1.29.42 1.38.02.03.04.05.07.05h.5c.03 0 .05-.02.06-.05.08-.23.71-2.04.79-2.27.01-.03-.01-.05-.04-.05-.07 0-.56 0-.63 0-.03 0-.05.02-.06.05-.03.09-.16.56-.39 1.41h-.01c-.25-.85-.4-1.32-.43-1.41-.01-.03-.03-.05-.06-.05-.05 0-.39 0-.43 0-.03 0-.06.02-.07.05-.03.09-.17.56-.42 1.41h-.01c-.24-.85-.38-1.32-.4-1.41-.01-.03-.03-.05-.07-.05-.07 0-.56 0-.63 0-.03 0-.04.02-.03.05.08.23.7 2.04.78 2.27.01.03.03.05.06.05z"/><path id="d" d="m11.47 10.21c.03 0 .05-.02.06-.05.03-.09.17-.55.43-1.38h.01c.25.83.39 1.29.42 1.38.01.03.03.05.06.05h.5c.03 0 .05-.02.06-.05.08-.23.71-2.04.79-2.27.01-.03-.01-.05-.04-.05-.06 0-.56 0-.62 0-.04 0-.06.02-.07.05-.03.09-.15.56-.38 1.41h-.01c-.26-.85-.41-1.32-.43-1.41-.02-.03-.04-.05-.07-.05-.04 0-.38 0-.43 0-.03 0-.06.02-.07.05-.02.09-.16.56-.42 1.41h-.01c-.24-.85-.37-1.32-.4-1.41-.01-.03-.03-.05-.07-.05-.06 0-.56 0-.62 0-.03 0-.05.02-.04.05.08.23.71 2.04.78 2.27.01.03.03.05.06.05z"/></defs><use xlink:href="#a"/><use fill="none" xlink:href="#a"/><use xlink:href="#b"/><use fill="none" xlink:href="#b"/><use xlink:href="#c"/><use fill="none" xlink:href="#c"/><use xlink:href="#d"/><use fill="none" xlink:href="#d"/></svg>