<svg height="16" preserveAspectRatio="xMidYMid meet" viewBox="0 0 16 16" width="16" xmlns="http://www.w3.org/2000/svg" xmlns:xlink="http://www.w3.org/1999/xlink"><defs><path id="a" d="m12.46 2.87c-.27-.74-.74-1.39-1.34-1.88-.75-.61-1.72-.99-2.77-.99-1.06 0-2.05.38-2.8 1.01-.57.47-1.02 1.09-1.3 1.79-1.17 0-2.23.48-3 1.25s-1.25 1.84-1.25 3.02.48 2.25 1.25 3.02 1.85 1.26 3.02 1.25h1.46c0-.16 0-1.51 0-1.68-.58 0-1.09 0-1.46 0-.71 0-1.35-.29-1.83-.76-.47-.47-.75-1.11-.75-1.83s.28-1.36.75-1.83c.48-.47 1.12-.76 1.83-.76.15 0 .3.02.45.04.06.01.33.06.81.15.1-.49.15-.76.16-.81.13-.62.46-1.16.93-1.55s1.07-.62 1.73-.62c.65 0 1.24.23 1.71.61s.8.91.93 1.52c.01.05.06.26.14.65.4.01.62.02.66.02.71.02 1.33.31 1.79.78.46.46.73 1.1.73 1.8 0 .72-.28 1.36-.75 1.83-.48.47-1.12.76-1.83.76-.37 0-.88 0-1.46 0v1.68h1.46c1.17.01 2.25-.48 3.02-1.25s1.25-1.84 1.25-3.02c0-1.16-.46-2.22-1.22-2.98-.61-.63-1.42-1.06-2.32-1.22z"/><path id="b" d="m9.49 7.51c0-.86-.7-1.56-1.55-1.56-.86 0-1.55.7-1.55 1.56 0 .6.35 1.13.86 1.38v4.13h-1.47l2.22 2.53 2.22-2.53h-1.47v-4.2c.49-.5.74-.94.74-1.31z"/></defs><use xlink:href="#a"/><use fill="none" xlink:href="#a"/><use xlink:href="#b"/><use fill="none" xlink:href="#b"/></svg>