<svg height="16" preserveAspectRatio="xMidYMid meet" viewBox="0 0 16 16" width="16" xmlns="http://www.w3.org/2000/svg" xmlns:xlink="http://www.w3.org/1999/xlink"><defs><path id="a" d="m10.53.41 1.15.48 1.04.65.94.8.8.94.65 1.04.48 1.15.31 1.23.1 1.3-.1 1.3-.31 1.23-.48 1.15-.65 1.05-.8.93-.94.8-1.04.65-1.15.48-1.23.31-1.3.1-1.3-.1-1.23-.31-1.15-.48-1.04-.65-.94-.8-.8-.93-.65-1.05-.48-1.15-.31-1.23-.1-1.3.1-1.3.31-1.23.48-1.15.65-1.04.8-.94.94-.8 1.04-.65 1.15-.48 1.23-.3 1.3-.11 1.3.11zm-4.94 3.88-1.3 1.3 2.41 2.41-2.41 2.41 1.3 1.3 2.41-2.41 2.41 2.41 1.3-1.3-2.41-2.41 2.41-2.41-1.3-1.3-2.41 2.41z"/></defs><use fill="#f00" xlink:href="#a"/><use fill="none" xlink:href="#a"/></svg>