<svg height="16" preserveAspectRatio="xMidYMid meet" viewBox="0 0 16 16" width="16" xmlns="http://www.w3.org/2000/svg" xmlns:xlink="http://www.w3.org/1999/xlink"><defs><path id="a" d="m13.37 11.04-.04.07-.04.08-.04.07-.05.07-.04.06-.04.07-.05.07-.04.07-.05.07-.05.06-.05.07-.05.06-.05.07-.05.06-.05.06-.05.07-.06.06-.05.06-.05.06-.06.06-.06.06-.05.06-.06.05.06.12.07.11.06.11.07.12.06.12.06.11.06.12.06.12.06.12.06.11.05.12.06.12.05.13-.08.06-.08.07-.08.06-.08.07-.08.06-.08.06-.09.06-.08.06-.08.06-.09.06-.09.05-.08.06-.09.05-.1-.09-.1-.09-.09-.09-.1-.09-.09-.09-.1-.09-.09-.09-.09-.1-.09-.09-.09-.1-.09-.1-.09-.09-.09-.1-.07.04-.07.03-.08.04-.07.03-.07.04-.08.03-.07.03-.08.03-.08.03-.07.03-.08.03-.08.02-.07.03-.08.03-.08.02-.08.02-.08.02-.08.02-.08.02-.07.02-.08.02-.08.02-.08.01-.08.02-.09.01-.08.01-.01.13-.01.13-.02.13-.02.13-.01.13-.02.13-.02.13-.02.13-.03.13-.02.13-.03.13-.02.13-.03.13-.1.01-.11.01h-.1l-.1.01h-.1-.11-.1-.1-.1l-.11-.01h-.1l-.1-.01-.1-.01-.03-.13-.03-.13-.02-.13-.03-.13-.02-.13-.02-.13-.02-.13-.02-.13-.02-.13-.02-.13-.01-.13-.01-.13-.02-.13-.08-.01-.08-.01-.08-.02-.08-.01-.08-.02-.08-.02-.08-.02-.08-.02-.08-.02-.08-.02-.07-.02-.08-.02-.08-.03-.08-.03-.07-.02-.08-.03-.08-.03-.07-.03-.08-.03-.07-.03-.08-.03-.07-.04-.08-.03-.07-.04-.07-.03-.08-.04-.08.1-.09.09-.09.1-.09.1-.09.09-.09.1-.1.09-.09.09-.09.09-.1.09-.1.09-.1.09-.09.09-.09-.05-.09-.06-.08-.05-.09-.06-.08-.06-.09-.06-.08-.06-.08-.06-.09-.06-.08-.07-.08-.06-.08-.07-.07-.06.05-.13.06-.12.05-.12.06-.11.06-.12.06-.12.06-.12.06-.11.06-.12.06-.12.07-.11.06-.11.07-.12-.06-.05-.06-.06-.05-.06-.06-.06-.05-.06-.06-.06-.05-.06-.05-.07-.06-.06-.05-.06-.05-.07-.05-.06-.05-.07-.04-.06-.05-.07-.05-.07-.04-.07-.04-.07-.05-.06-.04-.07-.04-.07-.04-.08-.04-.07-.04-.07-.04-.07-.04-.07-.12.02-.13.03-.13.03-.13.02-.13.03-.13.02-.13.02-.13.02-.13.02-.13.01-.13.02-.13.02-.13.01-.04-.1-.04-.09-.04-.1-.03-.09-.04-.1-.03-.1-.03-.1-.03-.1-.03-.09-.03-.1-.03-.1-.02-.1-.03-.1.12-.07.11-.06.12-.07.12-.06.11-.06.12-.06.12-.06.11-.06.12-.06.12-.05.12-.06.12-.05.12-.05-.01-.08-.02-.09-.01-.08-.01-.08v-.08l-.01-.08-.01-.08v-.08l-.01-.08v-.09l-.01-.08v-.08-.08-.08-.08l.01-.09v-.08l.01-.08v-.08l.01-.08.01-.08v-.08l.01-.08.01-.09.02-.08.01-.08-.12-.05-.12-.05-.12-.06-.12-.05-.12-.06-.11-.06-.12-.06-.12-.06-.11-.06-.12-.06-.12-.07-.11-.06-.12-.07.03-.1.02-.1.03-.1.03-.1.03-.1.03-.09.03-.1.03-.1.04-.1.03-.09.04-.1.04-.1.04-.09.13.01.13.02.13.01.13.02.13.02.13.02.13.02.13.02.13.03.13.02.13.03.13.02.12.03.04-.07.04-.07.04-.07.04-.08.04-.07.04-.07.04-.07.05-.07.04-.06.04-.07.05-.07.05-.07.04-.06.05-.07.05-.06.05-.07.05-.06.06-.07.05-.06.05-.06.06-.06.05-.06.06-.06.05-.06.06-.06.06-.06-.07-.11-.06-.11-.07-.12-.06-.11-.06-.12-.06-.11-.06-.12-.06-.12-.06-.12-.06-.12-.05-.12-.06-.12-.05-.12.07-.06.08-.07.08-.06.08-.07.09-.06.08-.06.08-.06.09-.06.08-.06.09-.06.08-.05.09-.06.09-.05.09.09.1.09.1.09.1.09.09.09.09.09.1.09.09.1.09.09.09.1.09.09.09.1.08.1.08-.04.07-.03.07-.04.08-.03.07-.04.08-.03.07-.03.08-.03.07-.03.08-.03.08-.03.07-.03.08-.02.08-.03.08-.02.07-.02.08-.02.08-.03.08-.01.08-.02.08-.02.08-.02.08-.01.08-.02.08-.01.08-.01.02-.13.01-.13.01-.13.02-.13.02-.13.02-.13.02-.13.02-.13.02-.13.03-.13.02-.13.03-.13.03-.13.1-.01.1-.01h.1l.11-.01h.1.1.1.11.1l.1.01h.1l.11.01.1.01.03.13.02.13.03.13.02.13.03.13.02.13.02.13.02.13.01.13.02.13.02.13.01.13.01.13.08.01.09.01.08.02.08.01.08.02.08.02.07.02.08.01.08.03.08.02.08.02.08.02.08.03.07.02.08.03.08.03.07.03.08.03.08.03.07.03.08.03.07.04.07.03.08.04.07.03.07.04.09-.1.09-.1.09-.09.09-.1.09-.09.09-.1.09-.09.1-.09.09-.09.1-.09.09-.09.1-.09.1-.09.09.05.08.06.09.05.09.06.08.06.08.06.09.06.08.06.08.06.08.07.08.06.08.07.08.06-.05.12-.06.12-.05.12-.06.12-.06.12-.06.12-.06.12-.06.11-.06.12-.07.11-.06.12-.07.11-.06.11.06.06.05.06.06.06.06.06.05.06.05.06.06.06.05.06.05.07.05.06.05.07.05.06.05.07.05.06.05.07.04.07.05.07.04.06.04.07.05.07.04.07.04.07.04.08.04.07.03.07.04.07.13-.03.13-.02.13-.03.12-.02.13-.03.13-.02.13-.02.13-.02.13-.02.14-.02.13-.01.13-.02.13-.01.04.09.04.1.03.1.04.09.03.1.04.1.03.1.03.09.03.1.03.1.02.1.03.1.02.1-.11.07-.12.06-.11.07-.12.06-.12.06-.11.06-.12.06-.12.06-.12.06-.12.05-.11.06-.12.05-.12.05.01.08.01.08.01.09.01.08.01.08.01.08.01.08v.08l.01.08v.08.09.08.08.08.08.08.09l-.01.08v.08l-.01.08-.01.08-.01.08-.01.08-.01.08-.01.09-.01.08.12.05.12.05.11.06.12.05.12.06.12.06.12.06.11.06.12.06.12.06.11.07.12.06.11.07-.02.1-.03.1-.02.1-.03.1-.03.09-.03.1-.03.1-.04.1-.03.1-.04.09-.03.1-.04.09-.04.1-.13-.01-.13-.02-.13-.02-.14-.01-.13-.02-.13-.02-.13-.02-.13-.02-.13-.03-.12-.02-.13-.03-.13-.03-.13-.02-.04.07-.03.07zm-9.15.15.23.25.26.23.27.21.31.21.33.18.34.16.35.13.36.1.37.07.38.05.37.01.38-.01.38-.05.36-.07.37-.1.35-.13.34-.16.33-.18.31-.21.27-.21.25-.23.24-.25.22-.27-3.8-2.19-3.79 2.19zm8.04-1.45.03-.09.03-.08.03-.09.1-.36.08-.37.04-.37.02-.38-.02-.38-.04-.37-.08-.37-.1-.36-.13-.35-.15-.35-.19-.32-.21-.32-.23-.29-.26-.28-.27-.26-.3-.23-.31-.21-.33-.18-.34-.16-.35-.13-.21-.06-.21-.05-.22-.05-.21-.03v4.38l3.8 2.19zm-5.53-6.41-.21.05-.21.06-.35.13-.34.16-.33.18-.31.21-.3.23-.28.26-.25.28-.24.29-.21.32-.18.32-.16.35-.13.35-.1.36-.07.37-.05.37-.01.38.01.38.05.37.07.37.1.36.03.09.03.08.04.09.03.08 3.8-2.19v-4.38l-.22.03z"/></defs><use xlink:href="#a"/><use fill="none" xlink:href="#a"/></svg>