<svg height="640" viewBox="0 0 640 640" width="640" xmlns="http://www.w3.org/2000/svg"><path d="m628.26654 240.70873c-10.99951-44.14182-31.85602-77.42605-76.28376-77.42605h-57.28434v67.71187c0 52.5695-44.56963 96.85432-95.42517 96.85432h-152.56651c-41.71313 0-76.28376 35.71303-76.28376 77.56895v145.42382c0 41.42712 35.99893 65.71188 76.28376 77.56895 48.28373 14.14187 94.71157 16.71357 152.56651 0 38.42773-11.14238 76.28376-33.57014 76.28376-77.56895v-58.14069h-152.42361v-19.42826h228.84927c44.42673 0 60.85554-30.99944 76.28376-77.42605 16.00001-47.85591 15.28531-93.85372 0-155.13791zm-219.42206 290.70465c15.85711 0 28.71362 12.99948 28.71362 28.99945 0 16.14187-12.85651 29.14234-28.71362 29.14234-15.71411 0-28.71362-13.14238-28.71362-29.14234.1429-16.14187 12.99951-28.99945 28.71362-28.99945zm-169.13613-222.70688h152.56651c42.42773 0 76.28376-34.99833 76.28376-77.56895v-145.56672c0-41.42712-34.85653-72.42656-76.28376-79.42605-51.14134-8.42878-106.71048-7.99998-152.56651.1429-64.56965 11.42828-76.28376 35.28423-76.28376 79.42605v58.14069h152.70941v19.42826h-209.99375c-44.42673 0-83.28326 26.71355-95.42517 77.42605-14.00001 58.14069-14.57071 94.42552 0 155.13791 10.85651 45.14131 36.71363 77.42605 81.14036 77.42605h52.42674v-69.71187c0-50.4266 43.57013-94.85432 95.42517-94.85432zm-9.5712-203.70751c-15.85711 0-28.71362-12.99948-28.71362-28.99945.1429-16.14187 12.85651-29.14234 28.71362-29.14234 15.71411 0 28.71362 13.14238 28.71362 29.14234 0 15.99997-12.85651 28.99945-28.71362 28.99945z" transform="translate(.91 .91)"/></svg>