<svg height="16" preserveAspectRatio="xMidYMid meet" viewBox="0 0 16 16" width="16" xmlns="http://www.w3.org/2000/svg" xmlns:xlink="http://www.w3.org/1999/xlink"><defs><path id="a" d="m8.38.04.17.06.18.07.16.1.15.11.13.12.12.15.11.16 6.38 11.06.09.17.06.17.05.19.02.18v.19l-.02.18-.05.18-.06.18-.09.17-.1.16-.12.14-.14.13-.15.11-.16.1-.17.07-.18.06-.18.03-.19.01h-12.78l-.19-.01-.18-.04-.18-.05-.17-.07-.16-.1-.15-.11-.14-.13-.12-.14-.1-.16-.09-.17-.06-.18-.05-.18-.02-.18v-.19l.02-.18.05-.19.06-.17.09-.17 6.38-11.06.11-.16.12-.15.13-.12.15-.11.16-.1.18-.07.17-.06.19-.03.19-.01.19.01zm-1.09 10.72-.21.32-.08.39.08.39.21.32.32.21.39.08.39-.08.32-.21.21-.32.08-.39-.08-.39-.21-.32-.32-.21-.39-.08-.39.08zm0-6.72-.21.32-.08.39.38 4.52.05.24.13.2.2.13.24.05.17-.04.15-.12.15-.19.15-.27.38-4.52-.08-.39-.21-.32-.32-.21-.39-.08-.39.08z"/></defs><use fill="#cbb100" xlink:href="#a"/><use fill="none" xlink:href="#a"/></svg>