<svg height="28" preserveAspectRatio="xMidYMid meet" viewBox="0 0 28 28" width="28" xmlns="http://www.w3.org/2000/svg" xmlns:xlink="http://www.w3.org/1999/xlink"><defs><path id="a" d="m14.27.19h.23l.23.01.23.01.23.02.23.02.22.02.22.02.2.03.21.02.19.03.99.21.96.27.94.34.9.4.87.47.83.53.78.58.75.63.7.69.65.74.6.78.54.82.49.87.43.9.37.94.3.98.24 1 .04.23.04.26.03.28.03.29.02.31.02.31.01.32.01.33v.33.32l-.01.32-.01.31-.02.31-.02.28-.03.27-.03.25-.04.23-.16.78-.21.75-.24.74-.28.72-.31.7-.35.67-.38.66-.42.63-.44.6-.48.58-.52.55-.54.52-.57.5-.6.46-.63.44-.65.4-.69.37-.34.17-.35.16-.35.15-.35.14-.35.13-.36.11-.35.11-.36.09-.36.09-.37.07-.37.07-.38.05-.38.04-.38.04-.4.02-.4.02h-.41l-.67-.01-.66-.04-.65-.07-.64-.1-.62-.13-.61-.15-.6-.18-.59-.21-.58-.24-.56-.27-.55-.29-.55-.33-.53-.35-.52-.38-.51-.41-.49-.44-.49-.47-.36-.37-.34-.38-.32-.38-.31-.38-.29-.39-.27-.4-.25-.4-.24-.41-.23-.42-.21-.43-.19-.44-.18-.45-.16-.45-.15-.47-.13-.48-.12-.5-.11-.5-.05-.24-.03-.26-.04-.27-.03-.29-.02-.31-.02-.31-.01-.33-.01-.32v-.33-.33l.01-.32.01-.31.02-.3.02-.29.03-.27.03-.25.04-.23.06-.3.07-.3.07-.31.08-.3.08-.29.09-.3.1-.29.1-.28.1-.28.11-.28.11-.27.12-.27.13-.26.12-.26.13-.25.14-.24.14-.24.43-.67.46-.64.5-.61.52-.58.54-.55.58-.51.59-.48.62-.44.65-.4.66-.37.69-.34.71-.29.72-.26.74-.22.76-.18.77-.14.79-.1.17-.01.18-.01.2-.01.21-.01h.21.22zm12.11 9.12-.16.05-.23.08-.3.1-.39.14-.49.18-.53.19-.7.25-.87.32-1.08.38-1.29.46-1.52.55-1.78.63-2.05.73-2.34.84-2.65.94-.64.23-.61.22-.57.21-.52.18-.47.17-.39.15-.33.12-.24.09-.15.07-.05.02.01.02.04.04.06.05.09.06.1.08.12.1.14.1.15.11.16.11.17.12.34.25.42.3.51.37.57.41.64.47.7.51.75.55.8.58.83.62.87.64.21.15.21.15.19.14.18.13.16.11.15.1.12.08.1.06.07.04.03.01.05-.01.08-.07.12-.12.18-.19.22-.25.29-.33.35-.41.42-.49.5-.6.58-.69.18-.21.23-.28.3-.35.34-.41.38-.45.41-.5.44-.52.45-.54.46-.55.47-.56.47-.56.47-.56.47-.57.47-.55.44-.52.41-.49.38-.46.33-.39.28-.34.22-.26.19-.22.18-.21.16-.2.16-.19.14-.17.12-.15.1-.13.08-.1.06-.07.02-.03.03-.04v-.03l-.02-.02-.05.01zm-20.47 8.49.32 2.12.06.37.04.18.03.01.03-.14.03-.1.04.07.04.26.06.46.04.39.05.34.04.23.03.1.56-.33 1.19-.77 1.2-.79.54-.38-.17-.13-.44-.33-.65-.49-.8-.59-1-.72-.64-.45-.36-.2-.14-.01-.04.05-.02-.01-.02-.05v-.11l-.01-.1-.02-.1-.03-.07-.04-.04-.07-.02.01.32zm19.87-8.52-.13.02-.16.03-.2.03-.25.04-.21.03-.24.04-.27.04-.35.05-.44.07-.55.08-.68.1-.85.13-1.03.15-1.24.18-.33.05-.38.06-.43.06-.45.07-.47.07-.49.07-.49.07-.48.08-.46.07-.44.06-1.15.17-1.37.21-1.52.22-1.59.24-1.61.24-1.54.23-1.41.2-1.21.18-.94.14-.61.09-.17.03-.17.03-.16.02-.14.03-.13.02-.11.02-.09.02-.07.02-.04.01-.01.01.01.02.05.04.08.06.1.08.13.09.15.1.17.11.18.12.2.13.21.13.22.14.24.16.26.17.26.17.27.17.27.17.26.17.25.16.23.15.21.14.3.19.25.16.2.12.16.1.14.06.1.05.09.02.07.01.07-.01.07-.02.05-.02.09-.03.12-.04.14-.05.16-.06.18-.06.2-.07.21-.07.22-.08.22-.08.62-.21 1.03-.35 1.36-.47 1.6-.54 1.76-.6 1.82-.63 1.8-.61 1.7-.58 1.5-.52 1.23-.41.82-.28.72-.25.62-.22.52-.18.43-.15.35-.12.27-.1.19-.07.11-.04.05-.03.01-.01v-.02h-.03-.04-.07z"/><path id="b" d="m6.08 17.61c.02-.09.02-.23 0-.33-.02-.08-.04-.01-.04.17s.02.25.04.16z"/><path id="c" d="m6.18 18.26c.02-.08.02-.23 0-.33-.03-.08-.05 0-.05.17 0 .18.02.25.05.16z"/><path id="d" d="m6.27 19.01c.02-.09.02-.24 0-.33-.03-.08-.05-.01-.05.17 0 .17.02.25.05.16z"/><path id="e" d="m6.36 19.75c.02-.08.02-.23 0-.33-.03-.08-.04-.01-.04.17s.01.25.04.16z"/></defs><use fill="#4212d2" xlink:href="#a"/><use fill="none" xlink:href="#a"/><use fill="#4212d2" xlink:href="#b"/><use fill="none" xlink:href="#b"/><use fill="#4212d2" xlink:href="#c"/><use fill="none" xlink:href="#c"/><use fill="#4212d2" xlink:href="#d"/><use fill="none" xlink:href="#d"/><use fill="#4212d2" xlink:href="#e"/><use fill="none" xlink:href="#e"/></svg>