<svg height="16" preserveAspectRatio="xMidYMid meet" viewBox="0 0 16 16" width="16" xmlns="http://www.w3.org/2000/svg" xmlns:xlink="http://www.w3.org/1999/xlink"><defs><path id="a" d="m10.43 1.06.11.07.11.09.11.13.11.15.11.18.1.21v1.73h1.38v10.91h-8.91v-10.91h1.37v-1.73l.02-.18.05-.16.09-.16.1-.13.14-.11.15-.08.17-.05.17-.02h4.38l.12.02zm-4.42 2.56h3.98v-1.53h-3.98z"/><path id="b" d="m0 13.44c0 .6.49 1.09 1.09 1.09h1.37v-10.91c-.82 0-1.28 0-1.37 0-.6 0-1.09.49-1.09 1.1z"/><path id="c" d="m13.55 3.62v10.91h1.36c.6 0 1.09-.49 1.09-1.09 0-.87 0-7.85 0-8.72 0-.61-.49-1.1-1.09-1.1-.18 0-.64 0-1.36 0z"/></defs><use fill="#fff" xlink:href="#a"/><use fill="none" xlink:href="#a"/><use fill="#fff" xlink:href="#b"/><use fill="none" xlink:href="#b"/><use fill="#fff" xlink:href="#c"/><use fill="none" xlink:href="#c"/></svg>