<svg height="640" preserveAspectRatio="xMidYMid meet" viewBox="0 0 640 640" width="640" xmlns="http://www.w3.org/2000/svg" xmlns:xlink="http://www.w3.org/1999/xlink"><defs><path id="a" d="m0 300c0 59.5 24.88 114 66.13 157.88-18.63 49.25-57.38 91-58 91.5-8.25 8.75-10.51 21.5-5.75 32.5 4.75 11 15.62 18.12 27.62 18.12 76.88 0 137.5-32.12 173.88-57.87 36.12 11.37 75.12 17.87 116.12 17.87 176.75 0 320-116.37 320-260 0-143.62-143.25-260-320-260s-320 116.38-320 260zm222 184.88c-1.89-.6-11.35-3.6-28.37-9-14.63 10.35-22.75 16.1-24.38 17.25-17.87 12.62-42.37 26.75-71.87 36.25 9.12-15.13 18-32.13 24.87-50.25.88-2.35 5.3-14.05 13.25-35.13-15.45-16.35-24.03-25.43-25.75-27.25-22.62-24.12-49.75-64-49.75-116.75 0-110.25 116.63-200 260-200 143.38 0 260 89.75 260 200s-116.62 200-260 200c-33.37 0-66.37-5.12-98-15.12z"/></defs><use fill="#fff" xlink:href="#a"/><use fill="none" xlink:href="#a"/></svg>