<svg height="16" preserveAspectRatio="xMidYMid meet" viewBox="0 0 16 16" width="16" xmlns="http://www.w3.org/2000/svg" xmlns:xlink="http://www.w3.org/1999/xlink"><defs><path id="a" d="m12.54 1.68c-.76.27-6.83 2.39-7.59 2.66-.96-.05-1.61-.31-2.06-.6-.14-.09-.16-.14-.16-.14-.09-.08-.12-.19-.09-.31.02-.11.1-.21.21-.25.68-.24 6.12-2.14 6.79-2.38.11-.03.22-.02.31.05.01 0 .01.01.02.02.05-.02.45-.17.5-.18-.03-.17-.13-.33-.27-.43-.18-.12-.4-.16-.61-.09-.71.25-6.42 2.25-7.14 2.5-.27.1-.45.35-.45.63v.18 11.01s.48 1.53 2.95 1.65c.76-.27 6.82-2.39 7.58-2.66.54-.18.89-.69.89-1.26 0-.97 0-8.79 0-9.77 0-.21-.1-.42-.28-.54-.17-.13-.4-.16-.6-.09z"/><path id="b" d="m3.88 3.46 6.86-2.4-.3-.14-6.86 2.4z"/><path id="c" d="m11.56 1.45-.3-.14-6.86 2.4.3.14z"/></defs><use fill="#fff" xlink:href="#a"/><use fill="none" xlink:href="#a"/><use fill="#fff" xlink:href="#b"/><use fill="none" xlink:href="#b"/><use fill="#fff" xlink:href="#c"/><use fill="none" xlink:href="#c"/></svg>