<svg height="16" preserveAspectRatio="xMidYMid meet" viewBox="0 0 16 16" width="16" xmlns="http://www.w3.org/2000/svg" xmlns:xlink="http://www.w3.org/1999/xlink"><defs><path id="a" d="m12.46 2.95c-.27-.76-.74-1.42-1.34-1.93-.75-.63-1.72-1.02-2.77-1.02-1.06 0-2.05.39-2.8 1.04-.57.49-1.02 1.12-1.3 1.84-1.17 0-2.23.5-3 1.28-.77.8-1.25 1.9-1.25 3.11s.48 2.32 1.25 3.11c.77.8 1.85 1.29 3.02 1.29h1.46c0-.17 0-1.56 0-1.73-.58 0-1.09 0-1.46 0-.71 0-1.35-.3-1.83-.78-.47-.49-.75-1.15-.75-1.89 0-.73.28-1.39.75-1.88.48-.48 1.12-.78 1.83-.78.15 0 .3.02.45.04.06.01.33.06.81.15.1-.5.15-.77.16-.83.13-.64.46-1.19.93-1.59s1.07-.64 1.73-.64c.65 0 1.24.23 1.71.62.47.4.8.95.93 1.57.01.05.06.27.14.67.4.01.62.01.66.02.71.01 1.33.32 1.79.8s.73 1.13.73 1.85c0 .74-.28 1.4-.75 1.89-.48.48-1.12.78-1.83.78-.37 0-.88 0-1.46 0v1.73h1.46c1.17 0 2.25-.49 3.02-1.29.77-.79 1.25-1.89 1.25-3.11 0-1.19-.46-2.28-1.22-3.07-.61-.64-1.42-1.09-2.32-1.25z"/><path id="b" d="m9.49 7.72c0-.88-.7-1.6-1.55-1.6-.86 0-1.55.72-1.55 1.6 0 .63.35 1.17.86 1.43v4.24h-1.47l2.22 2.61 2.22-2.61h-1.47v-4.32c.49-.52.74-.97.74-1.35z"/></defs><use fill="#fff" xlink:href="#a"/><use fill="none" xlink:href="#a"/><use fill="#fff" xlink:href="#b"/><use fill="none" xlink:href="#b"/></svg>