<svg viewBox="0 0 128 128" xmlns="http://www.w3.org/2000/svg"><g fill="#fff"><path d="m49.07 32.66c-14.37-2.62-25.72.12-30.25 8-3.38 5.85-2.41 13.61 2.34 21.9a1.47 1.47 0 0 0 2.56-1.47c-4.28-7.47-5.12-14.17-2.35-19 3.76-6.51 13.89-9 27.17-6.54a1.47 1.47 0 1 0 .53-2.9zm-20.44 39.95a92.2 92.2 0 0 0 22 17.34c20.84 12 43 15.25 54 7.79a1.47 1.47 0 0 0 -1.66-2.43c-9.86 6.69-30.97 3.61-50.9-7.92a89.27 89.27 0 0 1 -21.26-16.77 1.47 1.47 0 0 0 -2.18 2z"/><path d="m101.06 70.81c9.41-11.11 12.69-22.29 8.17-30.11-3.32-5.76-10.35-8.8-19.69-8.92a1.47 1.47 0 0 0 0 2.95c8.4.11 14.45 2.73 17.18 7.45 3.75 6.5.82 16.47-7.87 26.74a1.47 1.47 0 1 0 2.25 1.9zm-24.17-37.66a92 92 0 0 0 -26.25 10.4c-21.51 12.45-35.55 30.74-33.64 44.02a1.47 1.47 0 0 0 3-.43c-1.77-11.79 11.53-29.14 32.11-41.03a89.07 89.07 0 0 1 25.4-10.11 1.47 1.47 0 1 0 -.62-2.88z"/><path d="m42 96.78c5 13.73 13 22.22 22.05 22.22 6.6 0 12.7-4.5 17.46-12.42a1.47 1.47 0 1 0 -2.51-1.58c-4.28 7.12-9.53 11-14.94 11-7.52 0-14.69-7.54-19.24-20.24a1.47 1.47 0 0 0 -2.77 1zm45-2.69a92.5 92.5 0 0 0 3.91-27.3c0-24.41-8.54-45.44-20.71-50.85a1.47 1.47 0 0 0 -1.2 2.7c10.85 4.82 19 24.78 19 48.15a89.57 89.57 0 0 1 -3.78 26.42 1.47 1.47 0 0 0 2.81.88zm27.71-1.44a7.05 7.05 0 1 0 -7.05 7.05 7.05 7.05 0 0 0 7.05-7.05zm-2.95 0a4.1 4.1 0 1 1 -4.1-4.1 4.1 4.1 0 0 1 4.1 4.1zm-91.42 7.05a7.05 7.05 0 1 0 -7.05-7.05 7.05 7.05 0 0 0 7.05 7.05zm0-2.95a4.1 4.1 0 1 1 4.1-4.1 4.1 4.1 0 0 1 -4.1 4.1z"/><path d="m64.05 23.13a7.05 7.05 0 1 0 -7.05-7.05 7.05 7.05 0 0 0 7.05 7.05zm0-2.95a4.1 4.1 0 1 1 4.1-4.1 4.1 4.1 0 0 1 -4.1 4.1zm1.08 51.59a5.1 5.1 0 1 1 3.87-6.06 5.1 5.1 0 0 1 -3.87 6.06z"/></g></svg>