<svg height="640" preserveAspectRatio="xMidYMid meet" viewBox="0 0 640 640" width="640" xmlns="http://www.w3.org/2000/svg" xmlns:xlink="http://www.w3.org/1999/xlink"><defs><path id="a" d="m390.31 20.85c-16.24 8-32.29 20.36-42.85 33.04-5.78 6.86-15.72 21.68-19.13 28.4-2.36 4.68-3.55 11.74-5.44 32.75-1 10.75-1.42 16.38-3.6 46.62-2.08 28.69-3.5 42.93-4.45 44.59-.76 1.37-2.42-10.65-7.15-51.45-6.77-58.45-8.52-68.44-14.68-82.88-9.18-21.39-30.58-39.19-57.52-47.8-13.49-4.31-24.48-4.4-39.16-.38-12.78 3.55-23.67 9.37-35.79 19.31-10.89 8.9-17 15.43-31.15 33.18-13.31 16.66-20.83 26.88-23.63 32.04-.94 1.8-1.89 2.8-3.26 3.51-2.37 1.23-3.27 1.94-14.97 11.5-13.02 10.69-18.6 15.62-23.9 21.2-10.99 11.55-16.76 21.02-20.51 33.75-2.5 8.52-3.12 13.2-3.12 23.66.05 12.78 1.47 22.25 4.31 27.88 2.41 4.88 11.12 15.2 17.09 20.31 9.28 7.95 29.21 18.41 43.84 23.05 19.22 6.06 37.74 9.04 79.12 12.78 33.47 3.03 46.02 4.54 49.42 5.96.11.04.65.27 1.61.66-.96 1.02-1.5 1.59-1.61 1.71-1.98 2.03-4.4 2.79-12.26 3.69-8.43.99-19.79 1.61-41.19 2.18-39.39 1.04-56.29 2.36-68.65 5.44-16.52 4.12-37.83 18.6-50.19 34.08-12.97 16.33-17.99 30.9-20.59 59.87-.95 10.22-.95 19.93 0 23 1.28 4.36 8.38 14.96 18.61 27.79 7.43 9.27 12.97 15.09 21.54 22.53.54.47 3.26 2.84 8.14 7.1 2.53 5.42 3.93 8.43 4.22 9.04 2.32 4.97 5.25 10.88 6.53 13.15 7.72 13.49 20.74 30.58 30.82 40.47 9.52 9.33 16.15 13.16 28.36 16.38 16.52 4.4 41.95 6.29 52.98 3.93 12.64-2.65 28.5-11.88 40.29-23.38 5.3-5.16 10.8-13.07 15.29-22.11 5.54-11.12 9.95-29.3 16.1-67.02 4.55-27.55 7.39-42.74 9.23-48.66 1.85-5.91 4.6-8.66 9.66-9.6.12-.03.72-.14 1.8-.33-.17 2.38-.26 3.71-.28 3.97-.38 5.21-1.99 40.23-2.7 58.64-.62 15.58-.33 40.47.52 47.81 2.08 18.22 8.62 39.95 17.75 59.07 6.68 13.91 12.31 21.77 23.63 32.99 8.8 8.75 13.92 12.73 21.11 16.33 5.59 2.79 9.99 4.21 19.51 6.15 8.29 1.75 8.52 1.7 9.38-1.37.23-.95.89-4.17 1.46-7.15 1.33-7.19 1.04-9.89-1.56-15.15-1.8-3.69-2.65-4.73-10.89-12.92-14.44-14.43-18.32-19.5-24.05-31.33-13.16-27.12-18.13-49.32-20.6-91.82-1.23-20.78-.94-38.44.71-45.91.95-4.45 1-4.5 1.99-1.66 4.93 14.29 8.48 27.17 12.64 46.15 5.73 25.7 6.92 28.77 17 43.16 13.78 19.69 24.38 31.34 39.39 43.22 13.21 10.46 22.87 15.24 36.32 17.93 17.7 3.55 30.77 1.9 45.12-5.72 7.52-4.03 12.07-7.29 15.24-10.94 1.61-1.84 4.74-4.87 6.96-6.76 8.76-7.2 12.07-12.12 23.48-34.7 8.34-16.42 16.1-28.25 25.76-39.14 4.83-5.49 7.62-7.76 13.92-11.55.35-.2 2.08-1.23 5.21-3.08 1.33-2.55 2.07-3.97 2.22-4.26 1.23-2.36 3.41-6.29 4.93-8.75 4.4-7.34 6.44-13.59 8.57-26.22 1.99-11.98 2.79-21.49 2.79-33.18-.05-13.3-.43-15.15-5.59-25.56-10.89-21.91-24.28-34.36-46.21-42.98-10.79-4.21-20.35-6.67-31.48-8.09-14.39-1.85-18.32-1.94-71.02-1.94-29.26 0-51.89-.19-52.27-.43-.52-.33-.52-.47.05-.8 1.51-.85 12.31-2.23 41.81-5.4 38.96-4.21 49.38-5.96 62.02-10.65 20.36-7.47 35.6-15.66 51.6-27.69 18.14-13.63 27.18-25.89 32.67-44.3 3.7-12.21 6.39-30.67 6.39-43.02-.04-9.89-1.27-15-6.15-24.85-7.06-14.2-14.49-22.48-27.79-31.1-3.74-2.41-12.22-7.95-18.8-12.3-17.04-11.17-21.49-15.62-34.18-33.99-7.2-10.5-12.03-16.7-17.33-22.57-12.5-13.73-28.08-23.15-43.46-26.22-5.26-1.09-18.66-1.57-24.15-.9-9.94 1.28-15.62 3.03-25.8 8.04z"/></defs><use fill="#fff" xlink:href="#a"/><use fill="none" xlink:href="#a"/></svg>