<svg height="640" preserveAspectRatio="xMidYMid meet" viewBox="0 0 640 640" width="640" xmlns="http://www.w3.org/2000/svg" xmlns:xlink="http://www.w3.org/1999/xlink"><defs><path id="a" d="m380 536c0-4.46 0-40.1 0-44.56 9.57-2.13 18.84-5.46 27.58-9.91 27.51 3.13 56.22-4.38 78.49-19.98 65.61-1.42 113.93-46.75 113.93-124.93 0-2.66 0-23.96 0-26.62 0-75.08-50-123.14-50-159 0-.33 0-3.01 0-3.35 6.19-7.18 10-16.92 10-27.65 0-8 0-72 0-80 0-22.09-16.12-40-36-40-28.8 0-259.2 0-288 0-19.88 0-36 17.91-36 40v80c0 10.73 3.81 20.47 10 27.65v3.35c0 8.7-7.74 18.58-29.58 37.73-.02.01-.08.06-.19.16s-.17.15-.18.16c-12.42 11.07-26.05 22.65-41.57 32.32-37.81 23.38-98.48 37.99-98.48 94.63 0 71.16 44.11 115 104 115 10.03 0 19.36-1.02 28-2.72v107.72c0 56.37 47.63 104 104 104 57.02 0 104-47.21 104-104zm-148 0c0-19.8 0-178.2 0-198-21.66 0-44 33-88 33-33 0-44-25.78-44-55 0-10.99 40.89-25.56 70.13-43.66 18.21-11.34 34.03-24.4 49.84-38.5 22.97-20.13 45.79-42.29 49.49-73.84h220.94c4.71 53.49 49.6 93.14 49.6 150v26.62c0 50.66-27.75 71.41-76.66 63.26-10 18.26-42.47 30.18-67.03 16.15-22.78 24.21-57.97 22.24-76.31 6.19v113.78c0 23.72-20.28 44-44 44-23.37 0-44-20.97-44-44zm248-486c16.57 0 30 13.43 30 30s-13.43 30-30 30-30-13.43-30-30 13.43-30 30-30z"/></defs><use fill="#fff" xlink:href="#a"/><use fill="none" xlink:href="#a"/></svg>