<svg height="640" preserveAspectRatio="xMidYMid meet" viewBox="0 0 640 640" width="640" xmlns="http://www.w3.org/2000/svg" xmlns:xlink="http://www.w3.org/1999/xlink"><defs><path id="a" d="m60 80c-33.14 0-60 26.86-60 60v360c0 33.14 26.86 60 60 60h520c33.14 0 60-26.86 60-60 0-36 0-324 0-360 0-33.14-26.86-60-60-60-104 0-468 0-520 0zm7.5 420c-4.14 0-7.5-3.36-7.5-7.5 0-34.5 0-310.5 0-345 0-4.14 3.36-7.5 7.5-7.5h505c4.14 0 7.5 3.36 7.5 7.5v345c0 4.14-3.36 7.5-7.5 7.5-101 0-454.5 0-505 0zm42.5-260c0 27.61 22.39 50 50 50s50-22.39 50-50-22.39-50-50-50-50 22.39-50 50zm410 200v-100c-65.64-65.64-102.1-102.1-109.39-109.39-5.86-5.86-15.36-5.86-21.22 0-9.96 9.96-59.75 59.75-149.39 149.39-29.64-29.64-46.1-46.1-49.39-49.39-5.86-5.86-15.36-5.86-21.22 0-3.29 3.29-19.75 19.75-49.39 49.39v60z"/></defs><use fill="#fff" xlink:href="#a"/><use fill="none" xlink:href="#a"/></svg>