<svg height="640" preserveAspectRatio="xMidYMid meet" viewBox="0 0 640 640" width="640" xmlns="http://www.w3.org/2000/svg" xmlns:xlink="http://www.w3.org/1999/xlink"><defs><path id="a" d="m533.33 515.56c0 29.45-23.87 53.33-53.33 53.33-42.67 0-384 0-426.67 0-29.45 0-53.33-23.88-53.33-53.33 0-28.45 0-256 0-284.45 0-29.45 23.88-53.33 53.33-53.33h17.78v53.33c-6.67 0-10.37 0-11.11 0-3.68 0-6.67 2.99-6.67 6.67v271.11c0 3.68 2.99 6.67 6.67 6.67h413.33c3.69 0 6.67-2.99 6.67-6.67 0-.74 0-4.45 0-11.11h53.33zm-366.66-391.12c-3.69 0-6.67 2.99-6.67 6.67v271.11c0 3.68 2.98 6.67 6.67 6.67h413.33c3.68 0 6.67-2.99 6.67-6.67 0-27.11 0-244 0-271.11 0-3.68-2.99-6.67-6.67-6.67-82.67 0-372 0-413.33 0zm473.33 0v284.45c0 29.45-23.88 53.33-53.33 53.33-42.67 0-384 0-426.67 0-29.46 0-53.33-23.88-53.33-53.33 0-28.45 0-256 0-284.45 0-29.45 23.87-53.33 53.33-53.33h426.67c35.55 15.92 53.33 33.7 53.33 53.33zm-391.11 115.56c-24.55 0-44.45-19.9-44.45-44.44 0-24.55 19.9-44.45 44.45-44.45 24.54 0 44.44 19.9 44.44 44.45 0 24.54-19.9 44.44-44.44 44.44zm8.35 18.32c5.21-5.21 13.65-5.21 18.86 0 2.92 2.92 17.56 17.56 43.9 43.9 69.01-69.01 107.35-107.35 115.02-115.01 5.2-5.21 13.65-5.21 18.85 0 5.3 5.29 31.79 31.78 79.46 79.46v88.89h-320v-53.34c26.35-26.34 40.98-40.98 43.91-43.9z"/></defs><use fill="#fff" xlink:href="#a"/><use fill="none" xlink:href="#a"/></svg>