<svg height="640" preserveAspectRatio="xMidYMid meet" viewBox="0 0 640 640" width="640" xmlns="http://www.w3.org/2000/svg" xmlns:xlink="http://www.w3.org/1999/xlink"><defs><path id="a" d="m220.91 188.2c4.91 32.43.98 49.14-20.64 88.45-14.75 26.54-32.44 70.77-38.33 98.28-10.81 46.2-18.68 57.01-56.02 68.8-12.78 3.93-15.73 15.73-14.75 57.01.14 3.47.79 20.83 1.97 52.08l71.75 23.59 70.76 23.59c13.56-12.38 21.1-19.26 22.6-20.64 31.45-30.47 123.84-31.45 142.51-1.96 6.88 10.81 18.68 19.65 26.54 19.65 19.66 0 132.68-77.64 132.68-91.4 0-5.9-8.85-20.64-20.64-32.43-12.78-13.76-22.6-43.25-28.5-82.56-6.88-46.19-18.67-75.68-48.16-119.9-21.62-32.44-42.26-75.68-46.19-95.34-11.8-67.81-23.59-107.12-38.33-118.92-19.66-16.71-85.51-22.6-106.15-8.84-30.46 17.69-57.98 94.35-51.1 140.54zm137.59-88.45c-12.78-7.87-28.5-12.78-34.4-8.85-5.89 3.93-22.6 3.93-35.38.98-20.64-5.89-23.59-8.84-13.76-20.64 17.69-20.64 65.85-17.69 88.46 4.92 27.51 27.52 24.57 43.24-4.92 23.59zm-73.71 55.03c-7.86-12.77-10.81-10.81-15.73 6.88-3.93 12.78-9.82 22.61-14.74 22.61-17.69 0-20.64-30.47-4.91-54.06 19.65-29.48 45.21-22.6 45.21 13.76 0 19.66-1.97 22.61-9.83 10.81zm77.64 29.49c-5.89 0-12.77-8.85-15.72-19.66-3.93-15.72-7.86-17.69-18.68-8.84-10.81 8.84-13.76 5.89-13.76-13.76 0-13.76 5.9-27.52 12.78-29.49 5.9-2.95 12.78-5.89 13.76-5.89.98-.99 8.85 5.89 16.71 14.74 17.69 17.69 21.62 62.9 4.91 62.9zm-32.43 34.4c-24.57 18.67-39.31 18.67-55.04 0-23.59-28.5 23.59-48.16 58.97-24.57 12.78 8.84 11.79 11.79-3.93 24.57zm142.51 218.18c-21.62 13.76-24.57 9.83-35.38-62.9-3.93-22.6-20.64-64.86-39.32-95.33-29.48-49.14-31.45-55.04-17.69-74.7 14.75-20.63 15.73-19.65 38.33 26.54 13.76 25.55 34.4 64.87 48.16 86.49 29.49 48.16 32.43 103.19 5.9 119.9zm-276.17-54.05c0 17.69-3.94 26.53-10.82 22.6-15.72-9.83-.98-61.92 33.42-119.9 40.3-67.82 46.19-58.97 7.86 11.79-16.7 31.45-30.46 69.78-30.46 85.51zm219.17 36.36c-5.9 2.95-12.78 31.45-16.71 62.9-.46 3.74-2.75 22.41-6.88 56.02-34.79 0-54.12 0-57.99 0-62.9 0-78.62-13.76-56.02-50.12 9.83-16.71 8.85-21.62-7.86-34.4-64.87-47.18-67.82-63.88-27.52-146.44 21.62-44.23 31.45-54.05 52.09-54.05 13.76 0 31.45-3.94 39.31-9.83 18.67-11.8 63.88 55.03 79.61 120.88 6.88 31.45 7.86 50.13 1.97 55.04zm-165.12 138.58c-7.86 23.59-15.72 23.59-93.37-4.92-42.26-14.74-44.22-17.69-45.21-54.05-.98-25.55 2.95-39.31 10.81-39.31 6.88 0 17.7-6.88 24.57-14.75 20.64-25.55 38.33-16.7 74.7 38.33 25.55 39.32 33.42 58.97 28.5 74.7zm229.98-102.21c13.76-11.8 18.67-9.83 36.37 18.67 1.37 2.1 8.25 12.58 20.64 31.45-28.9 21.82-44.95 33.94-48.16 36.36-26.54 19.66-52.09 35.39-56.02 35.39-22.61 0-27.52-26.54-17.69-83.54 5.89-32.44 12.77-51.11 14.74-42.27 1.96 9.83 10.81 17.7 18.67 17.7 8.85 0 23.59-5.9 31.45-13.76zm-244.72 13.76c-10.81-19.66-9.83-20.64 8.84-9.83 11.8 5.89 20.64 12.77 20.64 14.74 0 14.74-20.64 11.79-29.48-4.91z"/></defs><use fill="#fff" xlink:href="#a"/><use fill="none" xlink:href="#a"/></svg>