<svg enable-background="new 298 388 16 16" height="16" viewBox="298 388 16 16" width="16" xmlns="http://www.w3.org/2000/svg"><path d="m310.324 396.455c-.007-1.311.586-2.3 1.786-3.029-.672-.961-1.686-1.49-3.025-1.593-1.269-.1-2.654.739-3.162.739-.536 0-1.765-.704-2.729-.704-1.993.032-4.111 1.59-4.111 4.758 0 .936.171 1.902.514 2.9.458 1.311 2.108 4.525 3.83 4.473.9-.021 1.536-.641 2.708-.641 1.136 0 1.725.641 2.729.641 1.736-.025 3.229-2.947 3.665-4.262-2.33-1.096-2.205-3.214-2.205-3.282zm-2.021-5.865c.975-1.157.886-2.211.857-2.59-.861.05-1.857.586-2.426 1.247-.625.708-.993 1.583-.915 2.568.933.072 1.784-.407 2.484-1.225z" fill="#fff"/></svg>