<svg height="640" preserveAspectRatio="xMidYMid meet" viewBox="0 0 640 640" width="640" xmlns="http://www.w3.org/2000/svg" xmlns:xlink="http://www.w3.org/1999/xlink"><defs><path id="a" d="m295.75 628.5c-7.71-4.56-69.41-41.06-77.13-45.62-11.49-6.5-5.87-8.75-2.12-10 15.38-5.38 18.5-6.5 34.88-15.88 1.75-1 3.99-.62 5.75.5 5.92 3.51 53.32 31.61 59.25 35.13 2.12 1.25 5.12 1.25 7.12 0 23.09-13.33 207.79-119.93 230.88-133.25 2.12-1.25 3.5-3.75 3.5-6.25 0-26.65 0-239.85 0-266.5 0-2.63-1.38-5-3.63-6.38-23.08-13.31-207.67-119.81-230.75-133.12-2.12-1.25-5-1.25-7.12 0-23.07 13.32-207.57 119.92-230.63 133.25-2.25 1.25-3.62 3.75-3.62 6.37v266.38c0 2.5 1.37 5 3.62 6.12 6.33 3.65 56.93 32.85 63.25 36.5 34.38 17.13 55.38-3 55.38-23.37 0-26.3 0-236.7 0-263 0-3.75 3-6.63 6.75-6.63h29.25c3.62 0 6.75 2.88 6.75 6.63v263.12c0 45.75-25 72-68.38 72-13.37 0-23.87 0-53.12-14.5-6.05-3.49-54.45-31.39-60.5-34.87-15-8.63-24.25-24.75-24.25-42.13 0-26.64 0-239.74 0-266.37 0-17.25 9.25-33.5 24.25-42.13 23.06-13.32 207.56-119.92 230.62-133.25 14.63-8.25 34-8.25 48.5 0 23.09 13.34 207.79 120.04 230.88 133.38 15 8.62 24.24 24.75 24.24 42.12v266.38c0 17.25-9.24 33.37-24.24 42.12-23.09 13.33-207.79 119.92-230.88 133.25-7.37 4.25-15.75 6.5-24.25 6.5-8.37 0-16.87-2.25-24.25-6.5zm106-328.62c-71.75-9.5-79-14.38-79-31.13 0-13.88 6.13-32.38 59.25-32.38 47.38 0 64.88 10.25 72.13 42.26.62 3 3.37 5.24 6.5 5.24h30c1.87 0 3.62-.75 4.87-2.12s1.88-3.25 1.75-5.12c-4.63-55.13-41.25-80.75-115.25-80.75-65.87 0-105.12 27.74-105.12 74.37 0 50.5 39.12 64.5 102.24 70.75 75.63 7.38 81.5 18.5 81.5 33.38 0 25.75-20.75 36.75-69.37 36.75-61.13 0-74.5-15.38-79-45.76-.5-3.25-3.25-5.62-6.63-5.62-2.98 0-26.88 0-29.87 0-3.75 0-6.63 3-6.63 6.62 0 38.88 21.13 85.25 122.25 85.25 73-.12 115-29 115-79.24.01-49.88-33.74-63.13-104.62-72.5z"/></defs><use fill="#fff" xlink:href="#a"/><use fill="none" xlink:href="#a"/></svg>