<svg height="640" preserveAspectRatio="xMidYMid meet" viewBox="0 0 640 640" width="640" xmlns="http://www.w3.org/2000/svg" xmlns:xlink="http://www.w3.org/1999/xlink"><defs><path id="a" d="m600 120h25c8.28 0 15-6.72 15-15 0-5 0-45 0-50 0-8.28-6.72-15-15-15-5 0-45 0-50 0-8.28 0-15 6.72-15 15v25h-480c0-15 0-23.33 0-25 0-8.28-6.72-15-15-15-5 0-45 0-50 0-8.28 0-15 6.72-15 15v50c0 8.28 6.72 15 15 15h25v400c-15 0-23.33 0-25 0-8.28 0-15 6.72-15 15v50c0 8.28 6.72 15 15 15h50c8.28 0 15-6.72 15-15 0-1.67 0-10 0-25h480v25c0 8.28 6.72 15 15 15h50c8.28 0 15-6.72 15-15 0-5 0-45 0-50 0-8.28-6.72-15-15-15-1.67 0-10 0-25 0v-360zm-480 55c0-8.28 6.72-15 15-15h210c8.28 0 15 6.72 15 15v170c0 8.28-6.72 15-15 15-21 0-189 0-210 0-8.28 0-15-6.72-15-15 0-34 0-153 0-170zm385 305c-21 0-189 0-210 0-8.28 0-15-6.72-15-15 0-4.33 0-26 0-65h90c16.57 0 30-13.43 30-30 0-6 0-36 0-90h105c8.28 0 15 6.72 15 15v170c-4.48 10-9.48 15-15 15z"/></defs><use fill="#fff" xlink:href="#a"/><use fill="none" xlink:href="#a"/></svg>