<svg height="16" preserveAspectRatio="xMidYMid meet" viewBox="0 0 16 16" width="16" xmlns="http://www.w3.org/2000/svg" xmlns:xlink="http://www.w3.org/1999/xlink"><defs><path id="a" d="m15.29 3.97c-.2-.19-.51-.19-.71.01-.19.18-1.13 1.13-2.84 2.84l-2.56-2.56c1.71-1.71 2.66-2.65 2.85-2.84.19-.2.19-.51 0-.71-.06-.05-.51-.51-.57-.56-.19-.2-.51-.2-.71 0-.19.19-1.13 1.13-2.84 2.84l-1.47-1.48-.42-.42-1.14 1.15.42.42-.04.03c-.91.91-1.41 1.42-1.51 1.52-1.45 1.44-1.83 3.55-1.15 5.34-.08.08-.7.7-.78.78-.37.37-.37.97 0 1.35l2.5 2.5c.38.37.98.37 1.35 0 .08-.08.7-.7.78-.78 1.8.68 3.9.3 5.34-1.15.11-.1.61-.6 1.52-1.51l.03-.04.43.43 1.14-1.15-.42-.42-1.48-1.47c1.71-1.71 2.65-2.65 2.84-2.84.2-.2.2-.52 0-.71-.11-.11-.5-.51-.56-.57z"/><path id="b" d="m1.53 16 1.77-1.77-1.53-1.53-1.77 1.77z"/></defs><use fill="#fff" xlink:href="#a"/><use fill="none" xlink:href="#a"/><use fill="#fff" xlink:href="#b"/><use fill="none" xlink:href="#b"/></svg>