<svg height="16" preserveAspectRatio="xMidYMid meet" viewBox="0 0 16 16" width="16" xmlns="http://www.w3.org/2000/svg" xmlns:xlink="http://www.w3.org/1999/xlink"><defs><path id="a" d="m8.22.01.27.01.26.02.26.02.11.02.12.01.11.02.57.12.56.16.54.19.52.23.5.27.48.31.44.33.44.36.4.4.37.43.35.45.31.47.28.5.25.52.21.54.18.56.13.58.03.13.02.15.02.16.02.17.02.36v.18l.01.19v.38l-.01.18v.18l-.01.18-.01.16-.02.15-.02.15-.02.13-.09.45-.13.43-.13.43-.16.41-.18.41-.2.38-.22.38-.25.36-.25.35-.28.33-.3.32-.31.3-.32.29-.35.26-.36.26-.38.23-.39.21-.2.1-.2.09-.2.09-.21.08-.2.07-.2.06-.21.07-.41.1-.43.08-.22.03-.43.05-.46.02h-.24l-.39-.01-.38-.02-.37-.04-.37-.06-.36-.07-.35-.09-.34-.1-.34-.12-.34-.14-.32-.16-.32-.16-.31-.19-.31-.2-.3-.22-.29-.24-.28-.25-.29-.27-.2-.22-.2-.22-.18-.21-.18-.22-.17-.23-.15-.23-.15-.23-.14-.23-.13-.25-.12-.24-.11-.26-.1-.26-.1-.26-.08-.27-.08-.27-.07-.29-.06-.29-.03-.14-.02-.15-.02-.15-.02-.17-.02-.36v-.19l-.01-.18v-.38l.01-.18v-.18l.01-.18.01-.16.02-.16.02-.14.02-.13.04-.18.04-.17.04-.18.04-.17.05-.17.05-.17.06-.17.11-.32.07-.16.06-.16.07-.15.07-.15.07-.15.08-.15.16-.27.25-.39.26-.37.29-.35.3-.33.31-.32.34-.29.34-.28.35-.25.38-.23.38-.22.39-.19.41-.17.42-.15.42-.13.44-.1.45-.08.45-.06h.1l.1-.01h.12l.12-.01h.25l.12.01zm6.62 5.32-.17.06-.23.08-.28.1-.3.11-.41.15-.5.18-.62.22-.74.27-.88.31-1.02.37-1.18.42-1.35.48-1.53.54-.37.13-.35.13-.33.12-.29.1-.28.1-.22.09-.19.07-.14.05-.08.04-.03.01v.01l.03.03.03.02.05.04.06.05.07.05.08.06.09.06.09.07.1.07.19.14.24.17.3.22.33.23.36.27.41.3.43.31.46.34.48.35.5.37.24.18.11.08.1.07.1.06.15.11.06.03.04.03h.02.03l.04-.04.07-.07.1-.11.13-.15.17-.19.2-.23.24-.29.29-.34.33-.4.11-.12.13-.16.17-.2.2-.24.22-.26.23-.29.26-.29.26-.32.26-.31.81-.97.27-.33.27-.31.26-.3.23-.29.22-.26.19-.23.16-.19.13-.15.11-.13.1-.12.1-.11.09-.11.08-.1.07-.09.06-.07.04-.06.04-.04.01-.02.01-.02v-.02l-.01-.01-.08.02-.1.03zm-11.56 4.82.18 1.22.04.21.02.1.02.01.01-.08.02-.06.02.04.03.15.03.27.02.22.03.2.03.13.01.06.33-.19.68-.45.69-.45.31-.22-.09-.08-.26-.19-.37-.28-.46-.34-.58-.41-.37-.26-.2-.12h-.09l-.02.03-.01-.01-.01-.03v-.06l-.01-.06-.01-.06-.02-.04-.02-.02-.04-.01.01.18zm11.44-4.91-.07.01-.1.02-.11.02-.14.02-.13.02-.13.02-.16.02-.2.03-.25.04-.32.05-.39.06-.49.07-.6.09-.71.1-.19.03-.22.03-.25.04-.26.04-.27.04-.56.08-.28.05-.26.04-.26.03-.66.1-.79.12-.87.13-.92.13-.93.14-.88.13-.81.12-.7.1-.54.08-.35.06-.2.03-.09.01-.08.02-.08.01-.06.01-.05.01-.04.02h-.03v.01.01l.03.02.05.04.06.04.07.05.09.06.1.06.1.07.11.08.13.07.12.08.14.1.3.19.31.2.15.1.14.09.14.08.12.08.17.11.14.1.12.07.09.05.08.04.06.03.05.01h.04.04l.04-.01.03-.01.12-.05.08-.02.1-.04.1-.03.11-.04.13-.04.25-.1.36-.12.59-.2.78-.27.92-.31 1.02-.35 1.05-.36 1.03-.35.98-.33.87-.3.7-.24.48-.16.41-.14.36-.13.3-.1.25-.09.2-.07.15-.06.11-.04.07-.02.02-.02h.01v-.02h-.08z"/><path id="b" d="m8.22.01.27.01.26.02.26.02.11.02.12.01.11.02.57.12.56.16.54.19.52.23.5.27.48.31.44.33.44.36.4.4.37.43.35.45.31.47.28.5.25.52.21.54.18.56.13.58.03.13.02.15.02.16.02.17.02.36v.18l.01.19v.38l-.01.18v.18l-.01.18-.01.16-.02.15-.02.15-.02.13-.09.45-.13.43-.13.43-.16.41-.18.41-.2.38-.22.38-.25.36-.25.35-.28.33-.3.32-.31.3-.32.29-.35.26-.36.26-.38.23-.39.21-.2.1-.2.09-.2.09-.21.08-.2.07-.2.06-.21.07-.41.1-.43.08-.22.03-.43.05-.46.02h-.24l-.39-.01-.38-.02-.37-.04-.37-.06-.36-.07-.35-.09-.34-.1-.34-.12-.34-.14-.32-.16-.32-.16-.31-.19-.31-.2-.3-.22-.29-.24-.28-.25-.29-.27-.2-.22-.2-.22-.18-.21-.18-.22-.17-.23-.15-.23-.15-.23-.14-.23-.13-.25-.12-.24-.11-.26-.1-.26-.1-.26-.08-.27-.08-.27-.07-.29-.06-.29-.03-.14-.02-.15-.02-.15-.02-.17-.02-.36v-.19l-.01-.18v-.38l.01-.18v-.18l.01-.18.01-.16.02-.16.02-.14.02-.13.04-.18.04-.17.04-.18.04-.17.05-.17.05-.17.06-.17.11-.32.07-.16.06-.16.07-.15.07-.15.07-.15.08-.15.16-.27.25-.39.26-.37.29-.35.3-.33.31-.32.34-.29.34-.28.35-.25.38-.23.38-.22.39-.19.41-.17.42-.15.42-.13.44-.1.45-.08.45-.06h.1l.1-.01h.12l.12-.01h.25l.12.01zm6.62 5.32-.17.06-.23.08-.28.1-.3.11-.41.15-.5.18-.62.22-.74.27-.88.31-1.02.37-1.18.42-1.35.48-1.53.54-.37.13-.35.13-.33.12-.29.1-.28.1-.22.09-.19.07-.14.05-.08.04-.03.01v.01l.03.03.03.02.05.04.06.05.07.05.08.06.09.06.09.07.1.07.19.14.24.17.3.22.33.23.36.27.41.3.43.31.46.34.48.35.5.37.24.18.11.08.1.07.1.06.15.11.06.03.04.03h.02.03l.04-.04.07-.07.1-.11.13-.15.17-.19.2-.23.24-.29.29-.34.33-.4.11-.12.13-.16.17-.2.2-.24.22-.26.23-.29.26-.29.26-.32.26-.31.81-.97.27-.33.27-.31.26-.3.23-.29.22-.26.19-.23.16-.19.13-.15.11-.13.1-.12.1-.11.09-.11.08-.1.07-.09.06-.07.04-.06.04-.04.01-.02.01-.02v-.02l-.01-.01-.08.02-.1.03zm-11.56 4.82.18 1.22.04.21.02.1.02.01.01-.08.02-.06.02.04.03.15.03.27.02.22.03.2.03.13.01.06.33-.19.68-.45.69-.45.31-.22-.09-.08-.26-.19-.37-.28-.46-.34-.58-.41-.37-.26-.2-.12h-.09l-.02.03-.01-.01-.01-.03v-.06l-.01-.06-.01-.06-.02-.04-.02-.02-.04-.01.01.18zm11.44-4.91-.07.01-.1.02-.11.02-.14.02-.13.02-.13.02-.16.02-.2.03-.25.04-.32.05-.39.06-.49.07-.6.09-.71.1-.19.03-.22.03-.25.04-.26.04-.27.04-.56.08-.28.05-.26.04-.26.03-.66.1-.79.12-.87.13-.92.13-.93.14-.88.13-.81.12-.7.1-.54.08-.35.06-.2.03-.09.01-.08.02-.08.01-.06.01-.05.01-.04.02h-.03v.01.01l.03.02.05.04.06.04.07.05.09.06.1.06.1.07.11.08.13.07.12.08.14.1.3.19.31.2.15.1.14.09.14.08.12.08.17.11.14.1.12.07.09.05.08.04.06.03.05.01h.04.04l.04-.01.03-.01.12-.05.08-.02.1-.04.1-.03.11-.04.13-.04.25-.1.36-.12.59-.2.78-.27.92-.31 1.02-.35 1.05-.36 1.03-.35.98-.33.87-.3.7-.24.48-.16.41-.14.36-.13.3-.1.25-.09.2-.07.15-.06.11-.04.07-.02.02-.02h.01v-.02h-.08z"/><path id="c" d="m3.38 9.85c-.02-.05-.03-.01-.03.09 0 .11.01.15.03.1.01-.05.01-.14 0-.19z"/><path id="d" d="m3.38 9.85c-.02-.05-.03-.01-.03.09 0 .11.01.15.03.1.01-.05.01-.14 0-.19z"/><path id="e" d="m3.43 10.22c-.01-.04-.03 0-.03.1s.02.14.03.09c.01-.04.01-.13 0-.19z"/><path id="f" d="m3.43 10.22c-.01-.04-.03 0-.03.1s.02.14.03.09c.01-.04.01-.13 0-.19z"/><path id="g" d="m3.48 10.65c-.01-.04-.02 0-.02.1s.01.14.02.09c.02-.05.02-.14 0-.19z"/><path id="h" d="m3.48 10.65c-.01-.04-.02 0-.02.1s.01.14.02.09c.02-.05.02-.14 0-.19z"/><path id="i" d="m3.54 11.08c-.02-.05-.03-.01-.03.1 0 .1.01.14.03.09.01-.05.01-.13 0-.19z"/><path id="j" d="m3.54 11.08c-.02-.05-.03-.01-.03.1 0 .1.01.14.03.09.01-.05.01-.13 0-.19z"/></defs><use fill="#fff" xlink:href="#a"/><use fill="none" xlink:href="#a"/><use fill="#fff" xlink:href="#b"/><use fill="none" xlink:href="#b"/><use fill="#fff" xlink:href="#c"/><use fill="none" xlink:href="#c"/><use fill="#fff" xlink:href="#d"/><use fill="none" xlink:href="#d"/><use fill="#fff" xlink:href="#e"/><use fill="none" xlink:href="#e"/><use fill="#fff" xlink:href="#f"/><use fill="none" xlink:href="#f"/><use fill="#fff" xlink:href="#g"/><use fill="none" xlink:href="#g"/><use fill="#fff" xlink:href="#h"/><use fill="none" xlink:href="#h"/><use fill="#fff" xlink:href="#i"/><use fill="none" xlink:href="#i"/><use fill="#fff" xlink:href="#j"/><use fill="none" xlink:href="#j"/></svg>