<svg height="16" preserveAspectRatio="xMidYMid meet" viewBox="0 0 16 16" width="16" xmlns="http://www.w3.org/2000/svg" xmlns:xlink="http://www.w3.org/1999/xlink"><defs><path id="a" d="m14.11 4.05c.68-.4 1.2-1.05 1.45-1.81-.63.37-1.34.65-2.09.79-.59-.64-1.45-1.03-2.39-1.03-1.81 0-3.28 1.47-3.28 3.28 0 .26.02.51.08.75-2.73-.14-5.15-1.45-6.77-3.43-.28.48-.44 1.05-.44 1.65 0 1.14.58 2.14 1.46 2.73-.54-.02-1.04-.17-1.49-.41v.04c0 1.59 1.14 2.92 2.64 3.22-.28.07-.57.11-.87.11-.21 0-.42-.02-.62-.06.42 1.31 1.63 2.26 3.07 2.28-1.12.88-2.54 1.41-4.08 1.41-.26 0-.52-.02-.78-.05 1.45.93 3.18 1.48 5.03 1.48 6.04 0 9.34-5 9.34-9.34 0-.14 0-.29-.01-.42.65-.47 1.2-1.05 1.64-1.7-.59.26-1.22.43-1.89.51z"/></defs><use fill="#fff" xlink:href="#a"/><use fill="none" xlink:href="#a"/></svg>