<svg height="640" preserveAspectRatio="xMidYMid meet" viewBox="0 0 640 640" width="640" xmlns="http://www.w3.org/2000/svg" xmlns:xlink="http://www.w3.org/1999/xlink"><defs><path id="a" d="m480 160c0-88.37-71.62-160-160-160-88.37 0-160 71.63-160 160 0 88.38 71.63 160 160 160 88.38 0 160-71.62 160-160zm-68.87 200c-27.75 12.75-58.63 20-91.13 20s-63.25-7.25-91.12-20c-2.09 0-18.79 0-20.88 0-92.75 0-168 75.25-168 168v52c0 33.13 26.88 60 60 60h440c33.13 0 60-26.87 60-60 0-5.2 0-46.8 0-52 0-92.75-75.25-168-168-168-4.17 0-18.79 0-20.87 0z"/></defs><use fill="#fff" xlink:href="#a"/><use fill="none" xlink:href="#a"/></svg>